<?xml version="1.0" encoding="utf-8"?>
<!-- Generator: Adobe Illustrator 27.5.0, SVG Export Plug-In . SVG Version: 6.00 Build 0)  -->
<svg version="1.1" id="Layer_1" xmlns="http://www.w3.org/2000/svg" xmlns:xlink="http://www.w3.org/1999/xlink" x="0px" y="0px"
	 viewBox="0 0 4000 9000" style="enable-background:new 0 0 4000 9000;" xml:space="preserve">
<g>
	<rect y="2.747" style="fill-rule:evenodd;clip-rule:evenodd;" width="3998.694" height="8997.066"/>
	<polygon style="fill-rule:evenodd;clip-rule:evenodd;fill:#18B4FC;" points="3165.237,312.957 2503.293,2.747 3998.694,2.747 
		3998.694,703.547 	"/>
	<polygon style="fill-rule:evenodd;clip-rule:evenodd;fill:#0276DA;" points="2433.558,190.37 3165.237,312.957 3998.694,703.547 
		3998.694,1235.953 3033.16,590.935 	"/>
	<polygon style="fill-rule:evenodd;clip-rule:evenodd;fill:#39D4FF;" points="3165.237,312.961 2433.563,190.375 1313.694,2.747 
		2503.293,2.747 	"/>
	<polygon style="fill-rule:evenodd;clip-rule:evenodd;fill:#0168AE;" points="2433.558,190.375 3033.16,590.935 756.329,2.747 
		1313.694,2.747 	"/>
	<polygon style="fill-rule:evenodd;clip-rule:evenodd;fill:#0168AE;" points="1683.279,500.242 2143.47,447.151 774.259,103.956 
		1058.051,267.394 	"/>
	<polygon style="fill-rule:evenodd;clip-rule:evenodd;fill:#0168AE;" points="1914.004,603.484 2291.013,501.967 2810.057,647.154 
		2886.88,926.775 2286.711,727.333 	"/>
	<polygon style="fill-rule:evenodd;clip-rule:evenodd;fill:#0168AE;" points="3567.718,1320.153 3926.657,1434.643 
		2917.726,656.548 2988.006,943.523 	"/>
	<polygon style="fill-rule:evenodd;clip-rule:evenodd;fill:#328A09;" points="833.456,8689.603 1495.402,8999.813 0,8999.813 
		0,8299.017 	"/>
	<polygon style="fill-rule:evenodd;clip-rule:evenodd;fill:#ADEF23;" points="1565.132,8812.188 833.456,8689.603 0,8299.017 
		0,7766.607 965.533,8411.629 	"/>
	<polygon style="fill-rule:evenodd;clip-rule:evenodd;fill:#55C307;" points="833.456,8689.603 1565.132,8812.186 2685,8999.813 
		1495.402,8999.813 	"/>
	<polygon style="fill-rule:evenodd;clip-rule:evenodd;fill:#54C508;" points="1016.314,8289.411 436.33,7604.987 167.701,7714.199 
		691.213,8069.049 	"/>
	<polygon style="fill-rule:evenodd;clip-rule:evenodd;fill:#54C508;" points="1139.067,8374.544 976.048,8077.848 
		1797.082,8815.914 	"/>
	<polygon style="fill-rule:evenodd;clip-rule:evenodd;fill:#54C508;" points="2689.626,8964.059 1997.927,8635.215 
		1827.266,8814.554 2359.256,8906.783 	"/>
</g>
</svg>
