<svg version="1.1" id="Layer_1" xmlns="http://www.w3.org/2000/svg" xmlns:xlink="http://www.w3.org/1999/xlink" x="0px" y="0px"
	 width="100%" viewBox="0 0 1890 1063" enable-background="new 0 0 1890 1063" xml:space="preserve">
<path fill="#000000" opacity="1.000000" stroke="none" 
	d="
M1061.000000,1064.000000 
	C707.333374,1064.000000 354.166779,1064.000000 1.000095,1064.000000 
	C1.000000,886.833435 1.000000,709.666870 1.000000,532.500305 
	C1.000000,355.333649 1.000000,178.167023 1.000000,1.000285 
	C630.999756,1.000190 1260.999512,1.000190 1890.999512,1.000095 
	C1890.999634,355.333038 1890.999634,709.666077 1890.999756,1063.999512 
	C1614.500000,1064.000000 1338.000000,1064.000000 1061.000000,1064.000000 
M352.020752,645.500000 
	C352.019836,689.826233 352.085693,734.152710 351.921967,778.478333 
	C351.904205,783.288757 353.310944,784.906494 358.144196,784.723877 
	C366.963654,784.390686 375.804565,784.632751 384.636536,784.621643 
	C391.759094,784.612671 391.764709,784.604065 391.763367,777.322205 
	C391.754883,731.662598 391.737732,686.003052 391.757690,640.343445 
	C391.758423,638.701660 392.116425,637.059937 392.307892,635.418213 
	C394.189850,636.595093 394.979279,637.820312 395.569489,639.135010 
	C414.182007,680.591675 433.018585,721.950500 451.248108,763.575073 
	C458.283569,779.639465 470.078430,786.918945 487.109222,787.138367 
	C504.374969,787.360779 517.048889,781.050354 524.379150,764.334412 
	C542.694214,722.568481 561.624146,681.072205 580.343323,639.483826 
	C581.005493,638.012634 582.049683,636.713379 582.915894,635.333984 
	C583.380188,635.495300 583.844482,635.656555 584.308777,635.817810 
	C584.308777,637.749634 584.308899,639.681396 584.308655,641.613220 
	C584.302673,687.272827 584.356140,732.932617 584.203491,778.591736 
	C584.187256,783.442261 585.775879,784.999695 590.552307,784.830566 
	C599.373230,784.518188 608.213074,784.745728 617.045044,784.739624 
	C623.651550,784.735107 623.743347,784.663574 623.744507,778.041992 
	C623.751892,734.215393 623.751038,690.388855 623.741638,646.562256 
	C623.740234,640.063599 623.836121,633.559509 623.610291,627.067566 
	C623.261353,617.038269 618.962219,609.205383 609.290771,605.658386 
	C602.775818,603.268982 595.903259,601.439697 589.034912,600.506470 
	C568.548706,597.722961 553.707031,606.299011 545.292664,625.089539 
	C538.897644,639.370483 532.523499,653.660889 526.138672,667.946350 
	C514.185425,694.690796 502.251251,721.443848 490.225159,748.155457 
	C489.542664,749.671265 488.104309,750.846863 487.017792,752.180786 
	C486.104858,750.916077 484.925781,749.767212 484.317657,748.369812 
	C466.649414,707.772461 448.870178,667.221924 431.502838,626.495911 
	C424.805878,610.791565 413.981659,601.257935 396.668762,599.994385 
	C386.317474,599.238831 376.373291,601.659973 366.936035,605.489868 
	C356.912048,609.557922 351.695251,617.352417 352.011658,628.503296 
	C352.162811,633.831360 352.026733,639.167480 352.020752,645.500000 
M1115.645264,605.833313 
	C1111.125610,606.919373 1106.577637,607.900696 1102.091187,609.109863 
	C1084.163940,613.941528 1071.538940,627.604065 1071.337402,644.109497 
	C1070.932739,677.250366 1071.050537,710.402039 1071.377319,743.545105 
	C1071.506226,756.612610 1077.741211,766.859436 1088.953613,773.669678 
	C1101.925415,781.548584 1116.231201,785.255371 1131.312378,785.070374 
	C1153.947998,784.792725 1176.579590,784.031738 1199.205078,783.247620 
	C1202.849487,783.121338 1205.517456,784.036194 1208.145020,786.488281 
	C1215.934326,793.757385 1223.784790,800.974670 1231.906616,807.864075 
	C1233.972656,809.616638 1237.111572,810.905884 1239.799438,810.984863 
	C1251.449585,811.327332 1263.115356,811.160583 1274.775269,811.125854 
	C1276.129150,811.121826 1277.482056,810.787598 1280.127563,810.433472 
	C1267.265625,798.810059 1255.414917,788.100525 1243.122437,776.991821 
	C1245.016479,775.656311 1246.105835,774.657959 1247.377563,774.027283 
	C1259.576172,767.977051 1265.317993,757.540527 1265.484863,744.565247 
	C1265.913208,711.257568 1265.930908,677.937988 1265.536621,644.629944 
	C1265.395020,632.665283 1259.746948,622.849487 1249.500977,616.205627 
	C1235.929077,607.405212 1220.690308,604.387939 1204.823120,604.273132 
	C1180.171753,604.094666 1155.517700,604.155457 1130.865723,604.293762 
	C1126.069458,604.320679 1121.277832,605.165039 1115.645264,605.833313 
M1121.082153,277.323486 
	C1116.365967,269.729919 1111.003540,262.448547 1107.137695,254.444260 
	C1104.028076,248.005508 1108.565308,242.427231 1115.773438,242.447449 
	C1117.919922,242.453491 1120.180420,242.587723 1122.192261,243.255371 
	C1135.998535,247.837204 1149.963135,252.890656 1160.891357,262.437988 
	C1169.493530,269.953125 1178.915161,272.320099 1189.203003,272.327881 
	C1204.695190,272.339630 1218.674683,277.070068 1232.219482,283.770691 
	C1253.425293,294.261169 1272.469604,307.936157 1289.827881,323.921051 
	C1314.233276,346.395447 1333.782349,372.585297 1348.082764,402.528748 
	C1354.388794,415.733154 1359.550293,429.481537 1365.759399,442.735565 
	C1374.087158,460.511810 1382.850830,478.085846 1391.582397,495.669678 
	C1395.289795,503.135620 1401.797729,507.030823 1409.580933,509.656464 
	C1424.675781,514.748657 1440.364014,518.452148 1453.819824,527.646545 
	C1465.918335,535.913391 1478.156006,543.977539 1490.208374,552.310120 
	C1492.610474,553.970764 1494.452637,556.441223 1497.315186,559.299255 
	C1494.763672,559.847778 1493.687866,560.214783 1492.591309,560.293701 
	C1481.812134,561.069458 1470.875854,560.926025 1460.293213,562.794434 
	C1450.553589,564.514038 1441.147583,568.244446 1431.687866,571.370911 
	C1427.752808,572.671570 1426.844482,575.586792 1428.957642,579.337341 
	C1430.748901,582.516602 1432.153442,585.934143 1434.136230,588.981506 
	C1443.517944,603.401794 1457.177734,613.185791 1472.017700,620.765137 
	C1491.932373,630.936340 1512.086548,640.447510 1528.594849,655.997559 
	C1529.355347,656.713806 1530.642456,656.871155 1531.684204,657.288818 
	C1531.963257,656.950745 1532.242432,656.612671 1532.521484,656.274597 
	C1530.879395,653.254822 1529.746582,649.773926 1527.504395,647.297485 
	C1519.236450,638.166199 1511.328247,628.493042 1501.917358,620.668335 
	C1490.583374,611.244690 1477.776978,603.606384 1465.777832,594.959595 
	C1462.170776,592.360291 1459.005249,589.096802 1455.883179,585.897888 
	C1454.316528,584.292969 1453.798584,582.231689 1456.948242,581.482361 
	C1464.229370,579.750061 1471.488037,577.900879 1478.817139,576.398376 
	C1490.537842,573.995667 1502.317749,571.883789 1514.051636,569.543091 
	C1517.439941,568.867126 1519.497192,567.134705 1516.638794,563.691406 
	C1511.856445,557.930664 1507.532715,551.592896 1501.942139,546.733093 
	C1476.952881,525.009949 1450.525024,505.349579 1418.838379,494.232178 
	C1412.438477,491.986786 1408.571167,487.807495 1405.822144,482.036530 
	C1395.514526,460.397064 1385.186035,438.767517 1374.881958,417.126312 
	C1368.028809,402.732544 1362.274048,387.690186 1354.171265,374.039948 
	C1326.771606,327.880615 1287.578613,293.825745 1241.081787,267.937469 
	C1224.189941,258.532501 1205.293579,255.932816 1186.197144,254.630081 
	C1182.647461,254.387939 1178.967285,252.616425 1175.806641,250.766144 
	C1166.790161,245.487686 1158.234253,239.395004 1149.076416,234.392868 
	C1139.369629,229.090927 1128.647705,225.102844 1117.677612,225.402496 
	C1094.891113,226.024933 1086.995728,247.745941 1094.039062,261.057281 
	C1099.596558,271.560699 1107.032227,281.064423 1113.540527,291.072632 
	C1118.698242,299.003906 1124.625366,306.607422 1128.548706,315.122375 
	C1132.835938,324.427368 1135.027222,334.678192 1138.460083,344.401001 
	C1144.576660,361.724579 1151.500122,378.636261 1164.247437,392.460510 
	C1165.480713,393.797882 1166.228027,396.513245 1165.820557,398.268677 
	C1164.247559,405.046356 1162.098755,411.689545 1160.192627,418.390839 
	C1151.953735,447.355591 1151.552002,476.245941 1161.510498,504.890930 
	C1165.613281,516.692505 1171.799194,527.384705 1181.820312,535.210876 
	C1193.094727,544.015869 1206.847534,539.700989 1210.547729,526.023865 
	C1212.754150,517.868958 1213.693848,509.373108 1215.257202,501.040710 
	C1215.532104,499.575195 1216.075806,498.160065 1216.495361,496.721680 
	C1217.056763,496.636292 1217.618164,496.550903 1218.179565,496.465515 
	C1221.398804,502.732025 1224.252319,509.224152 1227.939575,515.202087 
	C1231.679077,521.264526 1235.915039,527.098022 1240.537231,532.516785 
	C1245.061035,537.820068 1250.196533,542.636536 1255.338379,547.367981 
	C1260.606079,552.215271 1266.356201,556.537598 1271.632935,561.375793 
	C1285.038574,573.667542 1284.979858,573.731628 1287.630493,573.292969 
	C1254.335205,540.552307 1233.735962,499.831604 1216.585327,456.971924 
	C1215.436768,457.542603 1214.883179,457.653717 1214.583008,457.990692 
	C1205.237305,468.481323 1197.790161,479.895355 1196.342529,494.387543 
	C1195.598022,501.840607 1194.519409,509.261536 1193.522217,516.687622 
	C1192.820801,521.911499 1190.183228,523.211121 1186.207275,519.858826 
	C1183.736816,517.775757 1181.614502,514.977600 1180.112793,512.095581 
	C1167.670654,488.216461 1165.788574,462.661591 1169.890869,436.680206 
	C1171.585693,425.945648 1175.825317,415.580627 1179.255493,405.162048 
	C1182.289185,395.948212 1181.753662,387.920654 1173.875488,381.137512 
	C1171.150391,378.791229 1168.980469,375.695282 1166.932129,372.686371 
	C1158.766602,360.691589 1153.962036,347.162018 1150.117920,333.360199 
	C1144.401367,312.835358 1135.377075,294.144775 1121.082153,277.323486 
M822.500366,657.757080 
	C818.333740,657.755371 814.167175,657.746155 810.000549,657.753662 
	C802.848816,657.766602 802.697021,657.902832 802.695679,665.013855 
	C802.689941,694.345215 802.705200,723.676575 802.692261,753.007935 
	C802.689575,759.124207 802.334351,759.474487 796.139648,759.477905 
	C771.141357,759.491699 746.142700,759.543030 721.145020,759.413269 
	C717.019470,759.391907 712.810669,758.914734 708.792236,757.988953 
	C698.708374,755.665771 695.508484,751.423828 695.507141,741.245911 
	C695.503784,715.580994 695.448975,689.915771 695.568054,664.251404 
	C695.587280,660.104431 694.458435,658.148132 689.924438,658.258545 
	C680.264221,658.493774 670.591614,658.451172 660.929382,658.258057 
	C656.827026,658.176147 655.884216,660.003662 655.898071,663.719421 
	C655.990601,688.546021 656.263123,713.380005 655.760376,738.197144 
	C655.510803,750.517700 658.383911,760.833923 668.496460,768.539734 
	C680.467346,777.661560 694.335388,782.055969 708.963074,782.516357 
	C736.102600,783.370422 763.279236,783.015625 790.439941,783.231628 
	C803.782104,783.337708 802.292358,781.189941 802.533386,795.674377 
	C802.654358,802.944336 799.084595,807.542847 792.623291,809.556702 
	C787.437622,811.172974 781.915100,812.296997 776.502991,812.479004 
	C764.017944,812.898987 751.509155,812.613831 739.010010,812.614380 
	C713.511719,812.615540 688.012939,812.698120 662.515625,812.541016 
	C658.000244,812.513245 656.111084,813.861755 656.459717,818.550049 
	C656.792480,823.025085 656.527161,827.544128 656.534973,832.043823 
	C656.547058,839.007568 656.765442,839.252441 663.934509,839.254822 
	C701.432007,839.267273 738.929443,839.282166 776.426941,839.247437 
	C788.503296,839.236206 800.406799,837.722534 811.784973,833.578430 
	C830.682312,826.695557 843.173889,815.558533 842.625916,791.810913 
	C841.930237,761.662476 842.469299,731.485596 842.475281,701.320984 
	C842.477783,688.655151 842.394653,675.988464 842.529114,663.324097 
	C842.571777,659.314697 841.180908,657.487610 836.995300,657.700195 
	C832.507019,657.928223 827.998474,657.756531 822.500366,657.757080 
M881.656189,757.959717 
	C880.656555,757.957825 879.656860,757.950134 878.657227,757.954895 
	C872.399719,757.984680 872.254211,758.127258 872.239441,764.447510 
	C872.228149,769.278748 872.398193,774.117493 872.179871,778.938965 
	C871.999207,782.928284 873.316284,784.622314 877.575195,784.607849 
	C913.559326,784.485718 949.546692,784.783875 985.527466,784.411194 
	C1003.500549,784.225098 1020.544434,780.010376 1034.850708,768.239075 
	C1041.548462,762.728210 1045.841064,755.704102 1045.992798,746.782654 
	C1046.171143,736.291565 1046.498047,725.769348 1045.866577,715.314575 
	C1045.612427,711.106079 1043.695312,706.560730 1041.292847,703.009033 
	C1036.081543,695.305237 1027.986572,691.136108 1019.532898,687.785156 
	C1007.111267,682.861145 994.095032,681.354675 980.851624,681.271606 
	C964.027832,681.166077 947.197449,681.331543 930.382507,680.895691 
	C920.447144,680.638184 913.999451,675.664490 912.797852,666.439575 
	C911.736084,658.288391 912.179504,649.854004 912.777710,641.604126 
	C913.178955,636.071106 917.150024,632.686401 922.684448,631.883972 
	C928.596008,631.026794 934.562744,630.052917 940.510010,630.022034 
	C974.494568,629.846008 1008.480652,629.885803 1042.465698,630.002258 
	C1046.454102,630.015930 1048.263428,629.027283 1047.980835,624.686707 
	C1047.646118,619.544067 1047.677856,614.350037 1047.972778,609.202515 
	C1048.212402,605.021240 1046.675659,603.711548 1042.534180,603.727234 
	C1007.549622,603.859741 972.564453,603.781982 937.579529,603.841309 
	C925.077087,603.862488 912.742798,604.488708 900.696167,608.860046 
	C882.231873,615.559998 873.166626,627.304016 872.748352,646.943420 
	C872.602966,653.770752 872.693115,660.603638 872.713867,667.433899 
	C872.737244,675.151672 875.508484,681.719910 881.072693,687.088135 
	C891.740112,697.379761 905.084656,702.355042 919.287109,703.715515 
	C936.151062,705.330933 953.191101,705.099670 970.154114,705.692322 
	C976.309448,705.907349 982.491150,705.899902 988.610535,706.503784 
	C1001.065918,707.733032 1006.546387,713.950378 1006.540955,726.283936 
	C1006.538818,731.114868 1006.404175,735.947815 1006.505920,740.776184 
	C1006.662415,748.205017 1002.528381,752.931824 996.133545,755.005127 
	C990.548645,756.815735 984.453674,757.782410 978.573364,757.830872 
	C946.589233,758.094971 914.601807,757.959167 881.656189,757.959717 
M1290.026733,644.499146 
	C1290.031860,675.655212 1290.032837,706.811218 1290.043701,737.967285 
	C1290.050049,756.526428 1298.908325,769.035278 1315.816162,776.378906 
	C1327.812500,781.589233 1340.490723,783.728088 1353.280396,783.944092 
	C1388.589844,784.540588 1423.911743,784.375977 1459.228271,784.590576 
	C1462.599976,784.611084 1463.597534,783.030579 1463.553589,780.002075 
	C1463.476440,774.671692 1463.303223,769.326782 1463.598633,764.011780 
	C1463.852783,759.441467 1462.262085,757.987732 1457.589722,758.018005 
	C1427.101440,758.215759 1396.611084,758.175964 1366.121826,758.085449 
	C1359.801880,758.066650 1353.448730,757.824036 1347.171875,757.131348 
	C1335.267700,755.817566 1329.755005,749.627319 1329.302979,737.701904 
	C1329.227173,735.705078 1329.256836,733.703918 1329.256958,731.704712 
	C1329.257202,691.052002 1329.209473,650.399048 1329.339111,609.746765 
	C1329.352661,605.520447 1328.302246,603.726807 1323.756714,603.864563 
	C1314.435059,604.146912 1305.092041,604.163452 1295.771729,603.860962 
	C1291.011475,603.706482 1289.807373,605.506714 1289.924438,610.012939 
	C1290.214233,621.168335 1290.024780,632.336182 1290.026733,644.499146 
M1481.997314,753.126404 
	C1481.931030,753.955200 1481.835938,754.782776 1481.802490,755.612915 
	C1481.155396,771.628662 1491.183960,783.747803 1507.117676,786.214539 
	C1520.820557,788.335876 1536.264404,778.571594 1539.521851,764.607056 
	C1542.556396,751.597839 1536.999146,738.543152 1523.801270,731.753296 
	C1508.755371,724.012878 1486.781494,730.582275 1481.997314,753.126404 
M1197.830811,303.710327 
	C1192.746094,298.438995 1186.913086,299.724518 1180.462769,301.378571 
	C1186.314941,310.602173 1191.834595,319.301697 1197.360596,328.011322 
	C1205.935669,323.443359 1206.420776,312.527527 1197.830811,303.710327 
z"/>
<path fill="#005F87" opacity="1.000000" stroke="none" 
	d="
M352.020752,645.000000 
	C352.026733,639.167480 352.162811,633.831360 352.011658,628.503296 
	C351.695251,617.352417 356.912048,609.557922 366.936035,605.489868 
	C376.373291,601.659973 386.317474,599.238831 396.668762,599.994385 
	C413.981659,601.257935 424.805878,610.791565 431.502838,626.495911 
	C448.870178,667.221924 466.649414,707.772461 484.317657,748.369812 
	C484.925781,749.767212 486.104858,750.916077 487.017761,752.180786 
	C488.104309,750.846863 489.542664,749.671265 490.225159,748.155457 
	C502.251251,721.443848 514.185425,694.690796 526.138672,667.946350 
	C532.523499,653.660889 538.897644,639.370483 545.292664,625.089539 
	C553.707031,606.299011 568.548706,597.722961 589.034912,600.506470 
	C595.903259,601.439697 602.775818,603.268982 609.290771,605.658386 
	C618.962219,609.205383 623.261353,617.038269 623.610291,627.067566 
	C623.836121,633.559509 623.740234,640.063599 623.741638,646.562256 
	C623.751038,690.388855 623.751892,734.215393 623.744507,778.041992 
	C623.743347,784.663574 623.651550,784.735107 617.045044,784.739624 
	C608.213074,784.745728 599.373230,784.518188 590.552307,784.830566 
	C585.775879,784.999695 584.187256,783.442261 584.203491,778.591736 
	C584.356140,732.932617 584.302673,687.272827 584.308655,641.613220 
	C584.308899,639.681396 584.308777,637.749634 584.308777,635.817810 
	C583.844482,635.656555 583.380188,635.495300 582.915894,635.333984 
	C582.049683,636.713379 581.005493,638.012634 580.343323,639.483826 
	C561.624146,681.072205 542.694214,722.568481 524.379150,764.334412 
	C517.048889,781.050354 504.374969,787.360779 487.109222,787.138367 
	C470.078430,786.918945 458.283569,779.639465 451.248108,763.575073 
	C433.018585,721.950500 414.182007,680.591675 395.569489,639.135010 
	C394.979279,637.820312 394.189850,636.595093 392.307892,635.418213 
	C392.116425,637.059937 391.758423,638.701660 391.757690,640.343445 
	C391.737732,686.003052 391.754883,731.662598 391.763367,777.322205 
	C391.764709,784.604065 391.759094,784.612671 384.636536,784.621643 
	C375.804565,784.632751 366.963654,784.390686 358.144196,784.723877 
	C353.310944,784.906494 351.904205,783.288757 351.921967,778.478333 
	C352.085693,734.152710 352.019836,689.826233 352.020752,645.000000 
z"/>
<path fill="#DF8B00" opacity="1.000000" stroke="none" 
	d="
M1116.064697,605.732788 
	C1121.277832,605.165039 1126.069458,604.320679 1130.865723,604.293762 
	C1155.517700,604.155457 1180.171753,604.094666 1204.823120,604.273132 
	C1220.690308,604.387939 1235.929077,607.405212 1249.500977,616.205627 
	C1259.746948,622.849487 1265.395020,632.665283 1265.536621,644.629944 
	C1265.930908,677.937988 1265.913208,711.257568 1265.484863,744.565247 
	C1265.317993,757.540527 1259.576172,767.977051 1247.377563,774.027283 
	C1246.105835,774.657959 1245.016479,775.656311 1243.122437,776.991821 
	C1255.414917,788.100525 1267.265625,798.810059 1280.127563,810.433472 
	C1277.482056,810.787598 1276.129150,811.121826 1274.775269,811.125854 
	C1263.115356,811.160583 1251.449585,811.327332 1239.799438,810.984863 
	C1237.111572,810.905884 1233.972656,809.616638 1231.906616,807.864075 
	C1223.784790,800.974670 1215.934326,793.757385 1208.145020,786.488281 
	C1205.517456,784.036194 1202.849487,783.121338 1199.205078,783.247620 
	C1176.579590,784.031738 1153.947998,784.792725 1131.312378,785.070374 
	C1116.231201,785.255371 1101.925415,781.548584 1088.953613,773.669678 
	C1077.741211,766.859436 1071.506226,756.612610 1071.377319,743.545105 
	C1071.050537,710.402039 1070.932739,677.250366 1071.337402,644.109497 
	C1071.538940,627.604065 1084.163940,613.941528 1102.091187,609.109863 
	C1106.577637,607.900696 1111.125610,606.919373 1116.064697,605.732788 
M1211.761108,748.767029 
	C1219.524170,756.029297 1223.564819,755.120667 1227.582153,744.981628 
	C1228.414673,742.880005 1228.795898,740.464111 1228.802734,738.191284 
	C1228.890137,708.866821 1228.877197,679.542114 1228.876343,650.217407 
	C1228.876221,643.232483 1225.775757,637.467346 1219.584106,634.882263 
	C1213.593872,632.381165 1206.873779,630.642639 1200.414795,630.437256 
	C1182.105225,629.855286 1163.763916,630.099304 1145.438354,630.307922 
	C1140.155029,630.368042 1134.806396,631.031921 1129.621582,632.080750 
	C1119.007202,634.227783 1113.308228,641.425903 1113.287964,652.272156 
	C1113.236694,679.763977 1113.231812,707.256042 1113.284180,734.747864 
	C1113.308228,747.436462 1119.953613,756.295959 1132.437012,757.549988 
	C1146.128052,758.925415 1159.999512,758.512207 1173.793335,758.828308 
	C1174.156372,758.836609 1174.532715,758.266724 1175.587402,757.411011 
	C1165.892578,748.514771 1156.341675,739.750671 1146.245239,730.485962 
	C1148.034058,729.972595 1148.923584,729.497375 1149.814453,729.494751 
	C1162.477173,729.457764 1175.141724,729.392517 1187.801270,729.602661 
	C1189.561401,729.631775 1191.596436,730.747803 1192.993652,731.952820 
	C1199.172363,737.282043 1205.164673,742.827515 1211.761108,748.767029 
z"/>
<path fill="#005C82" opacity="1.000000" stroke="none" 
	d="
M1121.320435,277.588348 
	C1135.377075,294.144775 1144.401367,312.835358 1150.117920,333.360199 
	C1153.962036,347.162018 1158.766602,360.691589 1166.932129,372.686371 
	C1168.980469,375.695282 1171.150391,378.791229 1173.875488,381.137512 
	C1181.753662,387.920654 1182.289185,395.948212 1179.255493,405.162048 
	C1175.825317,415.580627 1171.585693,425.945648 1169.890869,436.680206 
	C1165.788574,462.661591 1167.670654,488.216461 1180.112793,512.095581 
	C1181.614502,514.977600 1183.736816,517.775757 1186.207275,519.858826 
	C1190.183228,523.211121 1192.820801,521.911499 1193.522217,516.687622 
	C1194.519409,509.261536 1195.598022,501.840607 1196.342529,494.387543 
	C1197.790161,479.895355 1205.237305,468.481323 1214.583008,457.990692 
	C1214.883179,457.653717 1215.436768,457.542603 1216.585327,456.971924 
	C1233.735962,499.831604 1254.335205,540.552307 1287.630493,573.292969 
	C1284.979858,573.731628 1285.038574,573.667542 1271.632935,561.375793 
	C1266.356201,556.537598 1260.606079,552.215271 1255.338379,547.367981 
	C1250.196533,542.636536 1245.061035,537.820068 1240.537231,532.516785 
	C1235.915039,527.098022 1231.679077,521.264526 1227.939575,515.202087 
	C1224.252319,509.224152 1221.398804,502.732025 1218.179565,496.465515 
	C1217.618164,496.550903 1217.056763,496.636292 1216.495361,496.721680 
	C1216.075806,498.160065 1215.532104,499.575195 1215.257202,501.040710 
	C1213.693848,509.373108 1212.754150,517.868958 1210.547729,526.023865 
	C1206.847534,539.700989 1193.094727,544.015869 1181.820312,535.210876 
	C1171.799194,527.384705 1165.613281,516.692505 1161.510498,504.890930 
	C1151.552002,476.245941 1151.953735,447.355591 1160.192627,418.390839 
	C1162.098755,411.689545 1164.247559,405.046356 1165.820557,398.268677 
	C1166.228027,396.513245 1165.480713,393.797882 1164.247437,392.460510 
	C1151.500122,378.636261 1144.576660,361.724579 1138.460083,344.401001 
	C1135.027222,334.678192 1132.835938,324.427368 1128.548706,315.122375 
	C1124.625366,306.607422 1118.698242,299.003906 1113.540527,291.072632 
	C1107.032227,281.064423 1099.596558,271.560699 1094.039062,261.057281 
	C1086.995728,247.745941 1094.891113,226.024933 1117.677612,225.402496 
	C1128.647705,225.102844 1139.369629,229.090927 1149.076416,234.392868 
	C1158.234253,239.395004 1166.790161,245.487686 1175.806641,250.766144 
	C1178.967285,252.616425 1182.647461,254.387939 1186.197144,254.630081 
	C1205.293579,255.932816 1224.189941,258.532501 1241.081787,267.937469 
	C1287.578613,293.825745 1326.771606,327.880615 1354.171265,374.039948 
	C1362.274048,387.690186 1368.028809,402.732544 1374.881958,417.126312 
	C1385.186035,438.767517 1395.514526,460.397064 1405.822144,482.036530 
	C1408.571167,487.807495 1412.438477,491.986786 1418.838379,494.232178 
	C1450.525024,505.349579 1476.952881,525.009949 1501.942139,546.733093 
	C1507.532715,551.592896 1511.856445,557.930664 1516.638794,563.691406 
	C1519.497192,567.134705 1517.439941,568.867126 1514.051636,569.543091 
	C1502.317749,571.883789 1490.537842,573.995667 1478.817139,576.398376 
	C1471.488037,577.900879 1464.229370,579.750061 1456.948242,581.482361 
	C1453.798584,582.231689 1454.316528,584.292969 1455.883179,585.897888 
	C1459.005249,589.096802 1462.170776,592.360291 1465.777832,594.959595 
	C1477.776978,603.606384 1490.583374,611.244690 1501.917358,620.668335 
	C1511.328247,628.493042 1519.236450,638.166199 1527.504395,647.297485 
	C1529.746582,649.773926 1530.879395,653.254822 1532.521484,656.274597 
	C1532.242432,656.612671 1531.963257,656.950745 1531.684204,657.288818 
	C1530.642456,656.871155 1529.355347,656.713806 1528.594849,655.997559 
	C1512.086548,640.447510 1491.932373,630.936340 1472.017700,620.765137 
	C1457.177734,613.185791 1443.517944,603.401794 1434.136230,588.981506 
	C1432.153442,585.934143 1430.748901,582.516602 1428.957642,579.337341 
	C1426.844482,575.586792 1427.752808,572.671570 1431.687866,571.370911 
	C1441.147583,568.244446 1450.553589,564.514038 1460.293213,562.794434 
	C1470.875854,560.926025 1481.812134,561.069458 1492.591309,560.293701 
	C1493.687866,560.214783 1494.763672,559.847778 1497.315186,559.299255 
	C1494.452637,556.441223 1492.610474,553.970764 1490.208374,552.310120 
	C1478.156006,543.977539 1465.918335,535.913391 1453.819824,527.646545 
	C1440.364014,518.452148 1424.675781,514.748657 1409.580933,509.656464 
	C1401.797729,507.030823 1395.289795,503.135620 1391.582397,495.669678 
	C1382.850830,478.085846 1374.087158,460.511810 1365.759399,442.735565 
	C1359.550293,429.481537 1354.388794,415.733154 1348.082764,402.528748 
	C1333.782349,372.585297 1314.233276,346.395447 1289.827881,323.921051 
	C1272.469604,307.936157 1253.425293,294.261169 1232.219482,283.770691 
	C1218.674683,277.070068 1204.695190,272.339630 1189.203003,272.327881 
	C1178.915161,272.320099 1169.493530,269.953125 1160.891357,262.437988 
	C1149.963135,252.890656 1135.998535,247.837204 1122.192261,243.255371 
	C1120.180420,242.587723 1117.919922,242.453491 1115.773438,242.447449 
	C1108.565308,242.427231 1104.028076,248.005508 1107.137695,254.444260 
	C1111.003540,262.448547 1116.365967,269.729919 1121.320435,277.588348 
z"/>
<path fill="#005F87" opacity="1.000000" stroke="none" 
	d="
M822.999573,657.758179 
	C827.998474,657.756531 832.507019,657.928223 836.995300,657.700195 
	C841.180908,657.487610 842.571777,659.314697 842.529114,663.324097 
	C842.394653,675.988464 842.477783,688.655151 842.475281,701.320984 
	C842.469299,731.485596 841.930237,761.662476 842.625916,791.810913 
	C843.173889,815.558533 830.682312,826.695557 811.784973,833.578430 
	C800.406799,837.722534 788.503296,839.236206 776.426941,839.247437 
	C738.929443,839.282166 701.432007,839.267273 663.934509,839.254822 
	C656.765442,839.252441 656.547058,839.007568 656.534973,832.043823 
	C656.527161,827.544128 656.792480,823.025085 656.459717,818.550049 
	C656.111084,813.861755 658.000244,812.513245 662.515625,812.541016 
	C688.012939,812.698120 713.511719,812.615540 739.010010,812.614380 
	C751.509155,812.613831 764.017944,812.898987 776.502991,812.479004 
	C781.915100,812.296997 787.437622,811.172974 792.623291,809.556702 
	C799.084595,807.542847 802.654358,802.944336 802.533386,795.674377 
	C802.292358,781.189941 803.782104,783.337708 790.439941,783.231628 
	C763.279236,783.015625 736.102600,783.370422 708.963074,782.516357 
	C694.335388,782.055969 680.467346,777.661560 668.496460,768.539734 
	C658.383911,760.833923 655.510803,750.517700 655.760376,738.197144 
	C656.263123,713.380005 655.990601,688.546021 655.898071,663.719421 
	C655.884216,660.003662 656.827026,658.176147 660.929382,658.258057 
	C670.591614,658.451172 680.264221,658.493774 689.924438,658.258545 
	C694.458435,658.148132 695.587280,660.104431 695.568054,664.251404 
	C695.448975,689.915771 695.503784,715.580994 695.507141,741.245911 
	C695.508484,751.423828 698.708374,755.665771 708.792236,757.988953 
	C712.810669,758.914734 717.019470,759.391907 721.145020,759.413269 
	C746.142700,759.543030 771.141357,759.491699 796.139648,759.477905 
	C802.334351,759.474487 802.689575,759.124207 802.692261,753.007935 
	C802.705200,723.676575 802.689941,694.345215 802.695679,665.013855 
	C802.697021,657.902832 802.848816,657.766602 810.000549,657.753662 
	C814.167175,657.746155 818.333740,657.755371 822.999573,657.758179 
z"/>
<path fill="#DD8A00" opacity="1.000000" stroke="none" 
	d="
M882.135864,757.960327 
	C914.601807,757.959167 946.589233,758.094971 978.573364,757.830872 
	C984.453674,757.782410 990.548645,756.815735 996.133545,755.005127 
	C1002.528381,752.931824 1006.662415,748.205017 1006.505920,740.776184 
	C1006.404175,735.947815 1006.538818,731.114868 1006.540955,726.283936 
	C1006.546387,713.950378 1001.065918,707.733032 988.610535,706.503784 
	C982.491150,705.899902 976.309448,705.907349 970.154114,705.692322 
	C953.191101,705.099670 936.151062,705.330933 919.287109,703.715515 
	C905.084656,702.355042 891.740112,697.379761 881.072693,687.088135 
	C875.508484,681.719910 872.737244,675.151672 872.713867,667.433899 
	C872.693115,660.603638 872.602966,653.770752 872.748352,646.943420 
	C873.166626,627.304016 882.231873,615.559998 900.696167,608.860046 
	C912.742798,604.488708 925.077087,603.862488 937.579529,603.841309 
	C972.564453,603.781982 1007.549622,603.859741 1042.534180,603.727234 
	C1046.675659,603.711548 1048.212402,605.021240 1047.972778,609.202515 
	C1047.677856,614.350037 1047.646118,619.544067 1047.980835,624.686707 
	C1048.263428,629.027283 1046.454102,630.015930 1042.465698,630.002258 
	C1008.480652,629.885803 974.494568,629.846008 940.510010,630.022034 
	C934.562744,630.052917 928.596008,631.026794 922.684448,631.883972 
	C917.150024,632.686401 913.178955,636.071106 912.777710,641.604126 
	C912.179504,649.854004 911.736084,658.288391 912.797852,666.439575 
	C913.999451,675.664490 920.447144,680.638184 930.382507,680.895691 
	C947.197449,681.331543 964.027832,681.166077 980.851624,681.271606 
	C994.095032,681.354675 1007.111267,682.861145 1019.532898,687.785156 
	C1027.986572,691.136108 1036.081543,695.305237 1041.292847,703.009033 
	C1043.695312,706.560730 1045.612427,711.106079 1045.866577,715.314575 
	C1046.498047,725.769348 1046.171143,736.291565 1045.992798,746.782654 
	C1045.841064,755.704102 1041.548462,762.728210 1034.850708,768.239075 
	C1020.544434,780.010376 1003.500549,784.225098 985.527466,784.411194 
	C949.546692,784.783875 913.559326,784.485718 877.575195,784.607849 
	C873.316284,784.622314 871.999207,782.928284 872.179871,778.938965 
	C872.398193,774.117493 872.228149,769.278748 872.239441,764.447510 
	C872.254211,758.127258 872.399719,757.984680 878.657227,757.954895 
	C879.656860,757.950134 880.656555,757.957825 882.135864,757.960327 
z"/>
<path fill="#DD8A00" opacity="1.000000" stroke="none" 
	d="
M1290.027344,643.999084 
	C1290.024780,632.336182 1290.214233,621.168335 1289.924438,610.012939 
	C1289.807373,605.506714 1291.011475,603.706482 1295.771729,603.860962 
	C1305.092041,604.163452 1314.435059,604.146912 1323.756714,603.864563 
	C1328.302246,603.726807 1329.352661,605.520447 1329.339111,609.746765 
	C1329.209473,650.399048 1329.257202,691.052002 1329.256958,731.704712 
	C1329.256836,733.703918 1329.227173,735.705078 1329.302979,737.701904 
	C1329.755005,749.627319 1335.267700,755.817566 1347.171875,757.131348 
	C1353.448730,757.824036 1359.801880,758.066650 1366.121826,758.085449 
	C1396.611084,758.175964 1427.101440,758.215759 1457.589722,758.018005 
	C1462.262085,757.987732 1463.852783,759.441467 1463.598633,764.011780 
	C1463.303223,769.326782 1463.476440,774.671692 1463.553589,780.002075 
	C1463.597534,783.030579 1462.599976,784.611084 1459.228271,784.590576 
	C1423.911743,784.375977 1388.589844,784.540588 1353.280396,783.944092 
	C1340.490723,783.728088 1327.812500,781.589233 1315.816162,776.378906 
	C1298.908325,769.035278 1290.050049,756.526428 1290.043701,737.967285 
	C1290.032837,706.811218 1290.031860,675.655212 1290.027344,643.999084 
z"/>
<path fill="#CD8000" opacity="1.000000" stroke="none" 
	d="
M1482.057861,752.706482 
	C1486.781494,730.582275 1508.755371,724.012878 1523.801270,731.753296 
	C1536.999146,738.543152 1542.556396,751.597839 1539.521851,764.607056 
	C1536.264404,778.571594 1520.820557,788.335876 1507.117676,786.214539 
	C1491.183960,783.747803 1481.155396,771.628662 1481.802490,755.612915 
	C1481.835938,754.782776 1481.931030,753.955200 1482.057861,752.706482 
M1490.710815,766.875183 
	C1492.089233,768.953308 1493.467773,771.031433 1495.040649,773.753784 
	C1496.673462,774.883728 1498.306396,776.013733 1500.381470,777.627686 
	C1501.215820,777.851624 1502.050171,778.075562 1503.335205,778.848816 
	C1505.230469,779.193054 1507.125610,779.537354 1509.745728,780.094788 
	C1510.490723,780.026733 1511.235596,779.958679 1512.712769,780.159363 
	C1514.523926,779.555359 1516.335083,778.951355 1518.893433,778.335999 
	C1519.569214,778.041992 1520.244995,777.747986 1521.562988,777.440857 
	C1530.462280,772.239075 1533.896240,764.285400 1532.744385,754.327637 
	C1531.640747,744.784302 1525.946655,738.801147 1516.946167,735.147644 
	C1516.310791,735.038208 1515.675415,734.928833 1514.132812,734.819275 
	C1511.415771,734.853577 1508.698730,734.887939 1505.614258,734.665161 
	C1505.046509,735.002136 1504.478760,735.339111 1503.263428,736.005737 
	C1500.463379,737.979736 1497.663330,739.953735 1494.273560,742.235718 
	C1493.064209,744.445068 1491.854980,746.654358 1490.084351,749.226990 
	C1489.776245,750.494385 1489.468018,751.761780 1488.860718,753.884949 
	C1488.959351,756.580322 1489.057983,759.275757 1488.973389,762.637756 
	C1489.536743,763.805847 1490.100220,764.973938 1490.710815,766.875183 
z"/>
<path fill="#00587D" opacity="1.000000" stroke="none" 
	d="
M1198.100586,303.935608 
	C1206.420776,312.527527 1205.935669,323.443359 1197.360596,328.011322 
	C1191.834595,319.301697 1186.314941,310.602173 1180.462769,301.378571 
	C1186.913086,299.724518 1192.746094,298.438995 1198.100586,303.935608 
z"/>
<path fill="#040200" opacity="1.000000" stroke="none" 
	d="
M1211.492676,748.530884 
	C1205.164673,742.827515 1199.172363,737.282043 1192.993652,731.952820 
	C1191.596436,730.747803 1189.561401,729.631775 1187.801270,729.602661 
	C1175.141724,729.392517 1162.477173,729.457764 1149.814453,729.494751 
	C1148.923584,729.497375 1148.034058,729.972595 1146.245239,730.485962 
	C1156.341675,739.750671 1165.892578,748.514771 1175.587402,757.411011 
	C1174.532715,758.266724 1174.156372,758.836609 1173.793335,758.828308 
	C1159.999512,758.512207 1146.128052,758.925415 1132.437012,757.549988 
	C1119.953613,756.295959 1113.308228,747.436462 1113.284180,734.747864 
	C1113.231812,707.256042 1113.236694,679.763977 1113.287964,652.272156 
	C1113.308228,641.425903 1119.007202,634.227783 1129.621582,632.080750 
	C1134.806396,631.031921 1140.155029,630.368042 1145.438354,630.307922 
	C1163.763916,630.099304 1182.105225,629.855286 1200.414795,630.437256 
	C1206.873779,630.642639 1213.593872,632.381165 1219.584106,634.882263 
	C1225.775757,637.467346 1228.876221,643.232483 1228.876343,650.217407 
	C1228.877197,679.542114 1228.890137,708.866821 1228.802734,738.191284 
	C1228.795898,740.464111 1228.414673,742.880005 1227.582153,744.981628 
	C1223.564819,755.120667 1219.524170,756.029297 1211.492676,748.530884 
z"/>
<path fill="#201400" opacity="1.000000" stroke="none" 
	d="
M1505.981689,734.922241 
	C1508.698730,734.887939 1511.415771,734.853577 1514.783691,735.037048 
	C1515.993408,735.358826 1516.552002,735.462769 1517.110718,735.566772 
	C1525.946655,738.801147 1531.640747,744.784302 1532.744385,754.327637 
	C1533.896240,764.285400 1530.462280,772.239075 1521.237305,777.133911 
	C1520.927246,775.986023 1520.942871,775.145081 1521.235718,774.127441 
	C1521.859131,772.674561 1522.851562,771.099121 1522.426025,770.180420 
	C1521.320312,767.793274 1519.713257,765.599670 1518.078857,763.506409 
	C1516.269531,761.189148 1516.604248,759.594482 1519.258179,758.463562 
	C1524.017578,756.435242 1524.720093,752.513306 1523.911377,748.088989 
	C1523.045654,743.353699 1519.461182,741.647644 1515.185059,741.340088 
	C1511.205811,741.053833 1507.174683,740.957703 1503.209473,741.291077 
	C1501.823975,741.407593 1499.428833,743.050415 1499.426392,744.001221 
	C1499.400269,753.952942 1499.767090,763.905701 1500.031494,774.268982 
	C1500.005249,775.501038 1499.972168,776.322388 1499.939209,777.143677 
	C1498.306396,776.013733 1496.673462,774.883728 1495.246582,773.170959 
	C1495.921265,771.733765 1496.783569,770.885742 1496.797485,770.024048 
	C1496.931030,761.709351 1496.996704,753.391174 1496.860596,745.077576 
	C1496.843140,744.017029 1495.560059,742.977173 1494.863281,741.927734 
	C1497.663330,739.953735 1500.463379,737.979736 1503.878662,735.882324 
	C1504.989746,735.479980 1505.485718,735.201111 1505.981689,734.922241 
z"/>
<path fill="#000000" opacity="1.000000" stroke="none" 
	d="
M1520.958618,774.304199 
	C1520.942871,775.145081 1520.927246,775.986023 1520.916016,777.140442 
	C1520.244995,777.747986 1519.569214,778.041992 1518.266846,778.142944 
	C1515.753662,778.596863 1513.867188,779.243774 1511.980591,779.890747 
	C1511.235596,779.958679 1510.490723,780.026733 1509.240845,779.692627 
	C1506.785522,778.960144 1504.834961,778.629822 1502.884521,778.299500 
	C1502.050171,778.075562 1501.215820,777.851624 1500.160400,777.385681 
	C1499.972168,776.322388 1500.005249,775.501038 1500.430908,774.294678 
	C1501.888184,773.959167 1502.953003,774.008728 1504.173584,774.174744 
	C1504.544312,773.858337 1504.759277,773.425476 1504.965088,772.529785 
	C1504.949097,769.600891 1504.733154,767.111023 1505.010254,764.677307 
	C1505.188721,763.108276 1506.090698,761.621643 1506.668457,760.098083 
	C1508.248657,761.169556 1509.828857,762.241028 1511.401245,763.661377 
	C1511.957520,764.666687 1512.521606,765.322998 1513.322510,766.203247 
	C1514.388550,767.946960 1515.217651,769.466736 1515.927002,771.191040 
	C1516.270142,771.881897 1516.733154,772.368286 1517.159668,772.866821 
	C1517.123413,772.878906 1517.146729,772.805969 1517.160767,773.054321 
	C1517.779297,773.549744 1518.383911,773.796753 1519.322510,774.035522 
	C1520.090576,774.119568 1520.524536,774.211914 1520.958618,774.304199 
z"/>
<path fill="#000000" opacity="1.000000" stroke="none" 
	d="
M1494.568359,742.081726 
	C1495.560059,742.977173 1496.843140,744.017029 1496.860596,745.077576 
	C1496.996704,753.391174 1496.931030,761.709351 1496.797485,770.024048 
	C1496.783569,770.885742 1495.921265,771.733765 1495.149414,772.848877 
	C1493.467773,771.031433 1492.089233,768.953308 1490.879150,766.287109 
	C1490.417236,764.456421 1489.786865,763.213806 1489.156494,761.971191 
	C1489.057983,759.275757 1488.959351,756.580322 1489.293213,753.345581 
	C1490.032227,751.492065 1490.338867,750.177917 1490.645630,748.863708 
	C1491.854980,746.654358 1493.064209,744.445068 1494.568359,742.081726 
z"/>
<path fill="#201400" opacity="1.000000" stroke="none" 
	d="
M1503.109863,778.574158 
	C1504.834961,778.629822 1506.785522,778.960144 1508.878418,779.586060 
	C1507.125610,779.537354 1505.230469,779.193054 1503.109863,778.574158 
z"/>
<path fill="#201400" opacity="1.000000" stroke="none" 
	d="
M1512.346680,780.025024 
	C1513.867188,779.243774 1515.753662,778.596863 1517.893311,778.148682 
	C1516.335083,778.951355 1514.523926,779.555359 1512.346680,780.025024 
z"/>
<path fill="#201400" opacity="1.000000" stroke="none" 
	d="
M1490.364990,749.045349 
	C1490.338867,750.177917 1490.032227,751.492065 1489.442749,752.917725 
	C1489.468018,751.761780 1489.776245,750.494385 1490.364990,749.045349 
z"/>
<path fill="#201400" opacity="1.000000" stroke="none" 
	d="
M1489.064941,762.304443 
	C1489.786865,763.213806 1490.417236,764.456421 1490.855591,765.920532 
	C1490.100220,764.973938 1489.536743,763.805847 1489.064941,762.304443 
z"/>
<path fill="#A36600" opacity="1.000000" stroke="none" 
	d="
M1517.028442,735.357178 
	C1516.552002,735.462769 1515.993408,735.358826 1515.237305,735.037109 
	C1515.675415,734.928833 1516.310791,735.038208 1517.028442,735.357178 
z"/>
<path fill="#A36600" opacity="1.000000" stroke="none" 
	d="
M1505.797974,734.793701 
	C1505.485718,735.201111 1504.989746,735.479980 1504.202393,735.717529 
	C1504.478760,735.339111 1505.046509,735.002136 1505.797974,734.793701 
z"/>
<path fill="#C07800" opacity="1.000000" stroke="none" 
	d="
M1504.017700,774.058289 
	C1502.953003,774.008728 1501.888184,773.959167 1500.424194,773.883911 
	C1499.767090,763.905701 1499.400269,753.952942 1499.426392,744.001221 
	C1499.428833,743.050415 1501.823975,741.407593 1503.209473,741.291077 
	C1507.174683,740.957703 1511.205811,741.053833 1515.185059,741.340088 
	C1519.461182,741.647644 1523.045654,743.353699 1523.911377,748.088989 
	C1524.720093,752.513306 1524.017578,756.435242 1519.258179,758.463562 
	C1516.604248,759.594482 1516.269531,761.189148 1518.078857,763.506409 
	C1519.713257,765.599670 1521.320312,767.793274 1522.426025,770.180420 
	C1522.851562,771.099121 1521.859131,772.674561 1521.235718,774.127441 
	C1520.524536,774.211914 1520.090576,774.119568 1519.167969,773.788635 
	C1518.168579,773.302002 1517.657593,773.054016 1517.146729,772.805969 
	C1517.146729,772.805969 1517.123413,772.878906 1517.126831,772.579956 
	C1516.769043,771.849548 1516.407837,771.418030 1516.046753,770.986572 
	C1515.217651,769.466736 1514.388550,767.946960 1513.283203,765.879028 
	C1512.474243,764.658020 1511.941650,763.985229 1511.409058,763.312439 
	C1509.828857,762.241028 1508.248657,761.169556 1506.668457,760.098083 
	C1506.090698,761.621643 1505.188721,763.108276 1505.010254,764.677307 
	C1504.733154,767.111023 1504.949097,769.600891 1504.737305,772.636963 
	C1504.351685,773.490723 1504.184692,773.774475 1504.017700,774.058289 
M1514.506348,754.818237 
	C1515.304077,754.187256 1516.101807,753.556213 1517.425415,752.400452 
	C1518.299561,747.468445 1516.633911,746.121338 1510.013062,745.898865 
	C1506.695557,745.787476 1504.783325,746.310425 1504.789307,750.398621 
	C1504.795044,754.364014 1506.454712,755.358398 1509.896118,754.959106 
	C1511.211426,754.806580 1512.539917,754.766235 1514.506348,754.818237 
z"/>
<path fill="#201400" opacity="1.000000" stroke="none" 
	d="
M1511.401245,763.661377 
	C1511.941650,763.985229 1512.474243,764.658020 1513.046265,765.655029 
	C1512.521606,765.322998 1511.957520,764.666687 1511.401245,763.661377 
z"/>
<path fill="#201400" opacity="1.000000" stroke="none" 
	d="
M1515.927002,771.191040 
	C1516.407837,771.418030 1516.769043,771.849548 1517.163086,772.567871 
	C1516.733154,772.368286 1516.270142,771.881897 1515.927002,771.191040 
z"/>
<path fill="#201400" opacity="1.000000" stroke="none" 
	d="
M1504.173584,774.174744 
	C1504.184692,773.774475 1504.351685,773.490723 1504.746338,773.099792 
	C1504.759277,773.425476 1504.544312,773.858337 1504.173584,774.174744 
z"/>
<path fill="#201400" opacity="1.000000" stroke="none" 
	d="
M1517.160767,773.054321 
	C1517.657593,773.054016 1518.168579,773.302002 1518.833984,773.796875 
	C1518.383911,773.796753 1517.779297,773.549744 1517.160767,773.054321 
z"/>
<path fill="#010100" opacity="1.000000" stroke="none" 
	d="
M1513.862305,754.674805 
	C1512.539917,754.766235 1511.211426,754.806580 1509.896118,754.959106 
	C1506.454712,755.358398 1504.795044,754.364014 1504.789307,750.398621 
	C1504.783325,746.310425 1506.695557,745.787476 1510.013062,745.898865 
	C1516.633911,746.121338 1518.299561,747.468445 1516.854736,752.674866 
	C1515.476685,753.524414 1514.669556,754.099609 1513.862305,754.674805 
z"/>
<path fill="#442B00" opacity="1.000000" stroke="none" 
	d="
M1514.184326,754.746521 
	C1514.669556,754.099609 1515.476685,753.524414 1516.591797,752.937256 
	C1516.101807,753.556213 1515.304077,754.187256 1514.184326,754.746521 
z"/>
</svg>